:SAMPLES-PER-SECOND 30
:FULLY-SPECIFIED
:DEGREES
385
root  -9.57664 37.3342 11.1716 -175.949 25.4131 174.719
RightUpLeg  -0.750766 -6.9961 -18.9865
RightLeg  30.7346 -13.8727 -8.95871
RightFoot  -12.9631 0.361022 31.0338
RightToes  2.32829e-010 0 -3.6325e-017
Spine  14.8397 4.06521 7.91208
Spine1  18.281 13.175 -22.0576
HEad  -10.0319 11.7635 -10.6464
LeftShoulder1  0.814105 0.133783 -17.5089
LeftArm  12.0602 11.4025 -51.911
LeftForeArm  137.27 -75.1854 -137.685
LeftHand  -1.25215 -2.43865 18.6781
RightShoulder  0.727524 1.30796 7.60795
RightArm  6.90243 14.7624 64.6161
RightForeArm  26.4831 75.584 50.1719
RightHand  -1.66835 4.22327 -20.2041
LeftUpLeg  -33.0277 -7.96228 10.1789
LeftLeg  16.651 -3.35991 -0.662143
LeftFoot  10.7933 4.32816 -22.2178
LeftToes  -5.54824e-011 -8.71001e-011 8.3852e-012
386
root  -9.61668 37.4209 11.6892 -176.58 30.762 175.231
RightUpLeg  -2.588 -9.39143 -19.2897
RightLeg  29.8863 -12.7835 -8.0514
RightFoot  -13.0269 0.393981 32.1428
RightToes  2.32829e-010 0 -3.6325e-017
Spine  14.2596 3.39205 5.87317
Spine1  18.0209 11.0324 -19.0673
HEad  -11.6076 16.8889 -12.7735
LeftShoulder1  0.750687 0.251136 -16.3373
LeftArm  12.8203 10.4601 -50.4063
LeftForeArm  134.497 -75.9327 -134.747
LeftHand  -1.13473 -2.17242 17.5472
RightShoulder  0.790832 1.50722 8.34349
RightArm  6.90606 8.41976 63.7329
RightForeArm  28.2372 76.5116 56.9412
RightHand  -1.29787 3.13791 -17.7925
LeftUpLeg  -30.6296 -4.46005 11.286
LeftLeg  15.2654 -2.27353 0.0199387
LeftFoot  11.3936 4.51942 -22.5753
LeftToes  -5.54824e-011 -8.71001e-011 8.3852e-012
387
root  -9.70374 37.2923 12.2197 -179.059 36.2965 174.812
RightUpLeg  -3.55931 -10.1417 -20.1837
RightLeg  30.7289 -11.1865 -7.32467
RightFoot  -14.8977 0.827722 29.5504
RightToes  2.32829e-010 0 -3.6325e-017
Spine  15.6731 2.66227 4.45008
Spine1  17.0031 9.37923 -17.2054
HEad  -13.3777 21.0762 -14.9083
LeftShoulder1  0.696203 0.364312 -15.3198
LeftArm  14.1477 8.19202 -48.9645
LeftForeArm  129.54 -76.7718 -130.543
LeftHand  -0.995307 -1.74815 16.3015
RightShoulder  0.849366 1.85628 8.4155
RightArm  5.62678 2.46856 62.3581
RightForeArm  38.4099 77.7924 69.8282
RightHand  -1.09703 2.46083 -16.3628
LeftUpLeg  -27.3153 -2.82963 12.4049
LeftLeg  15.3797 0.64305 0.817581
LeftFoot  10.1211 4.33876 -22.9487
LeftToes  -5.54824e-011 -8.71001e-011 8.3852e-012
388
root  -9.83799 37.0465 12.7219 178.288 42.0602 174.423
RightUpLeg  -5.06315 -7.35214 -20.3276
RightLeg  32.389 -8.94332 -6.30912
RightFoot  -17.4274 1.331 26.7525
RightToes  2.32829e-010 0 -3.6325e-017
Spine  17.0064 2.04501 3.4962
Spine1  17.0816 8.26947 -15.8055
HEad  -16.4148 25.0001 -17.8225
LeftShoulder1  0.550947 0.991045 -15.1078
LeftArm  14.7223 4.29963 -48.6422
LeftForeArm  123.806 -77.641 -125.224
LeftHand  -0.784801 -1.11825 14.106
RightShoulder  0.856767 1.94309 8.28128
RightArm  4.06522 -1.93385 60.1146
RightForeArm  55.1841 78.499 88.0057
RightHand  -1.04352 2.59318 -15.3208
LeftUpLeg  -24.4688 -2.19567 13.9959
LeftLeg  17.1603 4.22666 1.8306
LeftFoot  8.08583 3.96033 -23.1488
LeftToes  -5.54824e-011 -8.71001e-011 8.3852e-012
389
root  -9.98448 36.8272 13.1311 177.118 47.1235 175.064
RightUpLeg  -7.14174 -2.70376 -19.0127
RightLeg  34.225 -7.88356 -5.98849
RightFoot  -18.7595 1.58684 26.0175
RightToes  2.32829e-010 0 -3.6325e-017
Spine  16.8892 1.37045 2.56999
Spine1  18.7043 6.92861 -13.6877
HEad  -20.2735 29.0956 -21.4822
LeftShoulder1  0.574375 1.03379 -16.4115
LeftArm  13 -0.0940545 -48.7577
LeftForeArm  118.829 -78.5517 -118.646
LeftHand  -0.618673 -0.760914 11.829
RightShoulder  0.843258 1.65186 8.99432
RightArm  1.6768 -3.28809 56.8823
RightForeArm  61.0403 78.352 96.3214
RightHand  -0.907045 2.29469 -13.8291
LeftUpLeg  -22.94 -1.81175 16.1214
LeftLeg  19.7987 6.86762 3.05897
LeftFoot  6.76157 3.8088 -23.8579
LeftToes  -5.54824e-011 -8.71001e-011 8.3852e-012
390
root  -10.1139 36.7191 13.3789 176.794 50.4078 176.018
RightUpLeg  -8.50772 0.802728 -17.6799
RightLeg  35.6455 -8.17263 -6.5049
RightFoot  -18.7464 1.59667 26.2267
RightToes  2.32829e-010 0 -3.6325e-017
Spine  16.266 0.386614 1.19099
Spine1  20.5252 4.73844 -10.7741
HEad  -23.5877 32.9015 -24.8661
LeftShoulder1  0.88436 -0.0377385 -18.3694
LeftArm  9.77314 -4.31302 -48.8455
LeftForeArm  112.386 -79.4712 -109.309
LeftHand  -0.61912 -0.964784 11.4405
RightShoulder  0.834819 1.29926 10.1403
RightArm  -2.20937 -3.14885 54.7616
RightForeArm  50.8179 78.3228 87.9997
RightHand  -0.705682 1.25896 -12.4692
LeftUpLeg  -22.2532 -3.25784 18.0489
LeftLeg  22.2994 10.1707 4.88533
LeftFoot  6.87825 4.00134 -24.862
LeftToes  -5.54824e-011 -8.71001e-011 8.3852e-012
391
root  -10.2188 36.7474 13.4368 175.953 52.5801 175.839
RightUpLeg  -8.95379 2.6661 -17.6013
RightLeg  35.8337 -8.26262 -6.61499
RightFoot  -18.2487 1.45973 25.8417
RightToes  2.32829e-010 0 -3.6325e-017
Spine  16.0592 -0.604465 -0.824742
Spine1  21.3189 2.17403 -7.66664
HEad  -25.6637 36.2837 -27.305
LeftShoulder1  1.12823 -0.873102 -19.273
LeftArm  7.08085 -8.2338 -49.9109
LeftForeArm  103.372 -80.0298 -98.5156
LeftHand  -0.786226 -1.46467 13.4417
RightShoulder  0.772977 0.848116 10.5673
RightArm  -6.85843 -4.14977 55.3309
RightForeArm  34.3526 77.6631 70.1828
RightHand  -0.710379 1.15861 -12.6942
LeftUpLeg  -21.6188 -5.65375 18.6516
LeftLeg  24.0082 13.9113 6.99928
LeftFoot  7.72378 4.1281 -24.5404
LeftToes  -5.54824e-011 -8.71001e-011 8.3852e-012
392
root  -10.3196 36.8946 13.3552 174.514 55.6073 174.328
RightUpLeg  -9.58496 4.14194 -18.6599
RightLeg  34.4761 -6.92957 -5.35053
RightFoot  -17.5301 1.25353 25.0305
RightToes  2.32829e-010 0 -3.6325e-017
Spine  16.1985 -1.074 -3.17451
Spine1  20.7847 0.197425 -4.99776
HEad  -27.1121 39.6202 -29.7348
LeftShoulder1  1.04087 -0.552415 -19.1226
LeftArm  5.30569 -11.3806 -51.6046
LeftForeArm  98.3076 -80.1176 -93.4769
LeftHand  -1.06269 -2.15448 16.478
RightShoulder  0.658309 0.212138 10.537
RightArm  -11.0941 -6.41097 57.2427
RightForeArm  19.451 75.4538 51.7601
RightHand  -1.07445 2.75723 -15.3659
LeftUpLeg  -20.5802 -6.06525 18.0601
LeftLeg  24.6614 14.2199 7.34788
LeftFoot  7.3423 3.68647 -22.4002
LeftToes  -5.54824e-011 -8.71001e-011 8.3852e-012
393
root  -10.452 37.0998 13.1832 173.288 60.4153 172.595
RightUpLeg  -11.1008 5.17017 -19.8947
RightLeg  32.1101 -4.08954 -3.01479
RightFoot  -16.2265 0.948147 24.4841
RightToes  2.32829e-010 0 -3.6325e-017
Spine  16.4773 -0.951764 -5.04475
Spine1  19.218 -0.804537 -3.01785
HEad  -29.1521 42.8338 -33.6256
LeftShoulder1  0.887011 0.0466844 -19.1202
LeftArm  3.02242 -13.3918 -51.6348
LeftForeArm  103.069 -80.0124 -98.4433
LeftHand  -1.41888 -3.15656 19.3723
RightShoulder  0.599697 -0.151575 10.7329
RightArm  -14.2285 -9.02498 58.6752
RightForeArm  7.80983 71.5744 37.4353
RightHand  -1.66321 4.6112 -19.4287
LeftUpLeg  -19.2381 -3.99709 17.5177
LeftLeg  25.1667 9.16993 4.98025
LeftFoot  4.58386 2.80418 -20.0478
LeftToes  -5.54824e-011 -8.71001e-011 8.3852e-012
394
root  -10.6073 37.2538 12.9062 173.402 66.1238 172.141
RightUpLeg  -13.158 4.72506 -20.4087
RightLeg  29.6144 -0.209092 -0.366822
RightFoot  -14.4756 0.570266 24.124
RightToes  2.32829e-010 0 -3.6325e-017
Spine  16.5204 -0.539552 -6.05933
Spine1  17.5935 -1.27389 -1.01465
HEad  -32.4639 45.671 -38.9543
LeftShoulder1  0.829655 0.246394 -18.927
LeftArm  -0.824671 -14.5852 -49.2885
LeftForeArm  113.89 -79.6351 -108.517
LeftHand  -1.77901 -4.14578 21.7266
RightShoulder  0.671054 0.220938 10.8749
RightArm  -16.4367 -11.8926 59.4538
RightForeArm  -1.14609 66.5324 27.8883
RightHand  -2.17591 5.6716 -22.8649
LeftUpLeg  -18.1171 -1.98081 17.9488
LeftLeg  27.1988 3.38596 2.22885
LeftFoot  0.735011 2.01976 -19.0276
LeftToes  -5.54824e-011 -8.71001e-011 8.3852e-012
395
root  -10.7314 37.2775 12.5301 176.531 71.2506 174.741
RightUpLeg  -15.0796 3.37517 -19.7285
RightLeg  27.5552 3.67234 1.85676
RightFoot  -12.9227 0.243865 23.7928
RightToes  2.32829e-010 0 -3.6325e-017
Spine  15.7591 -0.149104 -6.72631
Spine1  17.0243 -1.97444 2.17141
HEad  -36.3874 48.5737 -44.1076
LeftShoulder1  0.625846 0.898874 -17.2118
LeftArm  -5.88245 -15.3753 -46.3241
LeftForeArm  122.644 -79.117 -116.243
LeftHand  -1.95386 -4.50557 22.9497
RightShoulder  0.831211 1.13789 10.7345
RightArm  -18.2169 -15.1397 59.8469
RightForeArm  -8.52873 60.8885 21.643
RightHand  -2.62793 6.37164 -25.8095
LeftUpLeg  -17.4956 -1.44752 19.3327
LeftLeg  30.3239 2.262 1.808
LeftFoot  -2.10438 1.65816 -20.2159
LeftToes  -5.54824e-011 -8.71001e-011 8.3852e-012
396
root  -10.8087 37.1721 12.1542 -176.549 74.5391 -178.689
RightUpLeg  -16.3825 2.62121 -18.153
RightLeg  26.287 6.04553 3.0275
RightFoot  -12.0832 0.073931 23.9989
RightToes  2.32829e-010 0 -3.6325e-017
Spine  14.4655 0.128673 -7.71889
Spine1  17.4529 -3.27458 6.71199
HEad  -39.4311 51.7274 -47.6967
LeftShoulder1  0.230326 2.43476 -14.5987
LeftArm  -11.4092 -15.9473 -43.3714
LeftForeArm  126.488 -78.7484 -119.973
LeftHand  -1.86223 -4.14926 22.6769
RightShoulder  0.984797 1.97962 10.7798
RightArm  -20.113 -18.8552 60.0618
RightForeArm  -14.9871 55.4542 17.6849
RightHand  -3.119 6.94006 -29.0625
LeftUpLeg  -17.4157 -1.57199 21.2808
LeftLeg  32.7847 4.68257 3.59796
LeftFoot  -3.61022 1.61188 -23.2474
LeftToes  -5.54824e-011 -8.71001e-011 8.3852e-012
397
root  -10.8857 36.9682 11.8837 -169.406 74.9039 -171.487
RightUpLeg  -16.7263 1.98137 -16.6501
RightLeg  26.2763 6.4006 3.20915
RightFoot  -12.296 0.129779 25.1937
RightToes  2.32829e-010 0 -3.6325e-017
Spine  13.8738 0.326481 -9.19145
Spine1  17.7435 -4.94451 11.5459
HEad  -40.6715 53.9045 -49.4835
LeftShoulder1  -0.0555313 3.76953 -13.1613
LeftArm  -17.126 -16.4338 -39.1263
LeftForeArm  127.68 -78.3324 -122.762
LeftHand  -1.72013 -3.58578 22.2858
RightShoulder  1.06346 2.28126 11.2591
RightArm  -23.0248 -23.5329 60.9287
RightForeArm  -20.6226 51.2763 15.4719
RightHand  -3.49498 7.27771 -31.5565
LeftUpLeg  -18.3749 -1.885 23.09
LeftLeg  34.2604 6.56973 5.14831
LeftFoot  -4.89676 1.49619 -25.6484
LeftToes  -5.54824e-011 -8.71001e-011 8.3852e-012
398
root  -10.9673 36.6546 11.7041 -167.637 71.9821 -169.381
RightUpLeg  -16.0759 -0.126058 -16.1469
RightLeg  27.8365 5.68728 3.02516
RightFoot  -13.8651 0.51254 27.0225
RightToes  2.32829e-010 0 -3.6325e-017
Spine  14.3431 0.387993 -10.8851
Spine1  17.4642 -6.60524 15.5999
HEad  -40.5951 54.1491 -49.8677
LeftShoulder1  -0.176632 4.3697 -13.3116
LeftArm  -22.5491 -16.6762 -34.0443
LeftForeArm  130.16 -77.2318 -128.741
LeftHand  -1.76813 -3.18107 23.8985
RightShoulder  1.12823 2.3796 12.134
RightArm  -27.1401 -29.5171 62.6075
RightForeArm  -27.0429 48.5521 14.4054
RightHand  -3.63574 7.33133 -32.6137
LeftUpLeg  -21.0878 -2.79936 23.8482
LeftLeg  35.9563 6.41826 5.34373
LeftFoot  -6.46206 1.14153 -25.4384
LeftToes  -5.54824e-011 -8.71001e-011 8.3852e-012
